<svg width="128" height="128" viewBox="0 0 128 128" fill="none" xmlns="http://www.w3.org/2000/svg">
<rect x="20" y="20" width="88" height="88" rx="12" fill="url(#paint0_linear_235_1648)"/>
<mask id="mask0_235_1648" style="mask-type:alpha" maskUnits="userSpaceOnUse" x="20" y="20" width="88" height="88">
<rect x="20" y="20" width="88" height="88" rx="12" fill="white"/>
</mask>
<g mask="url(#mask0_235_1648)">
<circle cx="64" cy="38" r="45" fill="#528FD7"/>
<circle cx="63.9998" cy="37.9998" r="38.5714" fill="#4E9BDD"/>
<circle cx="63.9996" cy="38.0003" r="32.1429" fill="#4DABEE"/>
<circle cx="63.9993" cy="38.0001" r="25.7143" fill="#5DC4FF"/>
<circle cx="64.0007" cy="37.9999" r="19.2857" fill="#76D6FF"/>
<circle cx="64.0005" cy="37.9997" r="12.8571" fill="#B2E1FF"/>
<g filter="url(#filter0_d_235_1648)">
<path fill-rule="evenodd" clip-rule="evenodd" d="M67.9396 63.1834L66.8767 60L59.0685 66.1538L57.7329 70.1538L58.3741 70.7692L67.9396 63.1834Z" fill="url(#paint1_linear_235_1648)"/>
<path fill-rule="evenodd" clip-rule="evenodd" d="M67.9396 63.1834L66.8767 60L59.0685 66.1538L57.7329 70.1538L58.3741 70.7692L67.9396 63.1834Z" fill="black" fill-opacity="0.1"/>
<path fill-rule="evenodd" clip-rule="evenodd" d="M78.8505 95.8599L56.6483 73.4021L57.7329 70.1538L58.3741 70.7692L76.1783 87.8571L78.8505 95.8599Z" fill="url(#paint2_linear_235_1648)"/>
<path fill-rule="evenodd" clip-rule="evenodd" d="M78.8505 95.8599L56.6483 73.4021L57.7329 70.1538L58.3741 70.7692L76.1783 87.8571L78.8505 95.8599Z" fill="black" fill-opacity="0.05"/>
<path fill-rule="evenodd" clip-rule="evenodd" d="M41 108L62.7397 44H65.5753L87 108H82.9041L78.8505 95.8599L76.1783 87.8571L67.9396 63.1834L66.8767 60L64 51.3846L59.0685 66.1538L57.7329 70.1538L56.6483 73.4021L45.0959 108H41Z" fill="url(#paint3_linear_235_1648)"/>
</g>
<g filter="url(#filter1_d_235_1648)">
<circle cx="64" cy="38" r="8" fill="white"/>
</g>
</g>
<g filter="url(#filter2_di_235_1648)">
<rect x="20" y="20" width="88" height="88" rx="12" fill="white" fill-opacity="0.01" shape-rendering="crispEdges"/>
</g>
<defs>
<filter id="filter0_d_235_1648" x="37" y="44" width="54" height="72" filterUnits="userSpaceOnUse" color-interpolation-filters="sRGB">
<feFlood flood-opacity="0" result="BackgroundImageFix"/>
<feColorMatrix in="SourceAlpha" type="matrix" values="0 0 0 0 0 0 0 0 0 0 0 0 0 0 0 0 0 0 127 0" result="hardAlpha"/>
<feOffset dy="4"/>
<feGaussianBlur stdDeviation="2"/>
<feComposite in2="hardAlpha" operator="out"/>
<feColorMatrix type="matrix" values="0 0 0 0 0 0 0 0 0 0 0 0 0 0 0 0 0 0 0.25 0"/>
<feBlend mode="normal" in2="BackgroundImageFix" result="effect1_dropShadow_235_1648"/>
<feBlend mode="normal" in="SourceGraphic" in2="effect1_dropShadow_235_1648" result="shape"/>
</filter>
<filter id="filter1_d_235_1648" x="52" y="30" width="24" height="24" filterUnits="userSpaceOnUse" color-interpolation-filters="sRGB">
<feFlood flood-opacity="0" result="BackgroundImageFix"/>
<feColorMatrix in="SourceAlpha" type="matrix" values="0 0 0 0 0 0 0 0 0 0 0 0 0 0 0 0 0 0 127 0" result="hardAlpha"/>
<feOffset dy="4"/>
<feGaussianBlur stdDeviation="2"/>
<feComposite in2="hardAlpha" operator="out"/>
<feColorMatrix type="matrix" values="0 0 0 0 0 0 0 0 0 0 0 0 0 0 0 0 0 0 0.25 0"/>
<feBlend mode="normal" in2="BackgroundImageFix" result="effect1_dropShadow_235_1648"/>
<feBlend mode="normal" in="SourceGraphic" in2="effect1_dropShadow_235_1648" result="shape"/>
</filter>
<filter id="filter2_di_235_1648" x="16" y="20" width="96" height="96" filterUnits="userSpaceOnUse" color-interpolation-filters="sRGB">
<feFlood flood-opacity="0" result="BackgroundImageFix"/>
<feColorMatrix in="SourceAlpha" type="matrix" values="0 0 0 0 0 0 0 0 0 0 0 0 0 0 0 0 0 0 127 0" result="hardAlpha"/>
<feOffset dy="4"/>
<feGaussianBlur stdDeviation="2"/>
<feComposite in2="hardAlpha" operator="out"/>
<feColorMatrix type="matrix" values="0 0 0 0 0 0 0 0 0 0 0 0 0 0 0 0 0 0 0.25 0"/>
<feBlend mode="normal" in2="BackgroundImageFix" result="effect1_dropShadow_235_1648"/>
<feBlend mode="normal" in="SourceGraphic" in2="effect1_dropShadow_235_1648" result="shape"/>
<feColorMatrix in="SourceAlpha" type="matrix" values="0 0 0 0 0 0 0 0 0 0 0 0 0 0 0 0 0 0 127 0" result="hardAlpha"/>
<feOffset dy="4"/>
<feGaussianBlur stdDeviation="2"/>
<feComposite in2="hardAlpha" operator="arithmetic" k2="-1" k3="1"/>
<feColorMatrix type="matrix" values="0 0 0 0 1 0 0 0 0 1 0 0 0 0 1 0 0 0 0.15 0"/>
<feBlend mode="normal" in2="shape" result="effect2_innerShadow_235_1648"/>
</filter>
<linearGradient id="paint0_linear_235_1648" x1="64" y1="20" x2="64" y2="108" gradientUnits="userSpaceOnUse">
<stop stop-color="#4DC2FF"/>
<stop offset="1" stop-color="#7E1CFF"/>
</linearGradient>
<linearGradient id="paint1_linear_235_1648" x1="64.1496" y1="44" x2="64.1496" y2="108" gradientUnits="userSpaceOnUse">
<stop stop-color="#D4F1FF"/>
<stop offset="1" stop-color="#B389FF"/>
</linearGradient>
<linearGradient id="paint2_linear_235_1648" x1="64.1496" y1="44" x2="64.1496" y2="108" gradientUnits="userSpaceOnUse">
<stop stop-color="#D4F1FF"/>
<stop offset="1" stop-color="#B389FF"/>
</linearGradient>
<linearGradient id="paint3_linear_235_1648" x1="64.1496" y1="44" x2="64.1496" y2="108" gradientUnits="userSpaceOnUse">
<stop stop-color="#D4F1FF"/>
<stop offset="1" stop-color="#B389FF"/>
</linearGradient>
</defs>
</svg>
