<svg width="128" height="128" viewBox="0 0 128 128" fill="none" xmlns="http://www.w3.org/2000/svg">
<g filter="url(#filter0_di_234_363)">
<rect x="27" y="13" width="74" height="102" rx="12" fill="url(#paint0_linear_234_363)"/>
</g>
<path d="M101 103H27C27 109.627 32.3726 115 39 115H89C95.6274 115 101 109.627 101 103Z" fill="url(#paint1_linear_234_363)" fill-opacity="0.9"/>
<rect x="53" y="17" width="16" height="4" rx="2" fill="#404040" fill-opacity="0.9"/>
<rect x="71" y="17" width="4" height="4" rx="2" fill="#404040" fill-opacity="0.9"/>
<g filter="url(#filter1_d_234_363)">
<path d="M74.8379 64.0517L80.7711 58.0934C81.6359 57.225 82.0442 56.0718 81.9961 54.9344C82.0447 53.7965 81.6364 52.6426 80.7712 51.7737L74.838 45.8154C73.1995 44.1701 70.5432 44.1701 68.9047 45.8154C67.2663 47.4608 67.2663 50.1284 68.9047 51.7737L72.0513 54.9335L68.9047 58.0934C67.2663 59.7387 67.2662 62.4063 68.9047 64.0517C70.5431 65.697 73.1995 65.697 74.8379 64.0517Z" fill="white"/>
<path d="M56.0115 48.796C54.919 49.8931 53.1477 49.8931 52.0551 48.796C50.9626 47.6988 50.9626 45.92 52.0551 44.8229C53.1477 43.7257 54.919 43.7257 56.0115 44.8229C57.1041 45.92 57.1041 47.6988 56.0115 48.796Z" fill="white"/>
<path d="M53.1637 63.5751C51.5249 65.2208 48.8679 65.2208 47.2291 63.5751C45.5903 61.9294 45.5903 59.2612 47.2291 57.6154C48.8679 55.9697 51.5249 55.9697 53.1637 57.6154C54.8025 59.2612 54.8025 61.9294 53.1637 63.5751Z" fill="white"/>
<path d="M65.9026 78.3543C63.7175 80.5486 60.1748 80.5486 57.9898 78.3543C55.8047 76.16 55.8047 72.6023 57.9898 70.4081C60.1748 68.2138 63.7175 68.2138 65.9026 70.4081C68.0877 72.6023 68.0877 76.16 65.9026 78.3543Z" fill="white"/>
</g>
<defs>
<filter id="filter0_di_234_363" x="23" y="13" width="82" height="110" filterUnits="userSpaceOnUse" color-interpolation-filters="sRGB">
<feFlood flood-opacity="0" result="BackgroundImageFix"/>
<feColorMatrix in="SourceAlpha" type="matrix" values="0 0 0 0 0 0 0 0 0 0 0 0 0 0 0 0 0 0 127 0" result="hardAlpha"/>
<feOffset dy="4"/>
<feGaussianBlur stdDeviation="2"/>
<feComposite in2="hardAlpha" operator="out"/>
<feColorMatrix type="matrix" values="0 0 0 0 0 0 0 0 0 0 0 0 0 0 0 0 0 0 0.25 0"/>
<feBlend mode="normal" in2="BackgroundImageFix" result="effect1_dropShadow_234_363"/>
<feBlend mode="normal" in="SourceGraphic" in2="effect1_dropShadow_234_363" result="shape"/>
<feColorMatrix in="SourceAlpha" type="matrix" values="0 0 0 0 0 0 0 0 0 0 0 0 0 0 0 0 0 0 127 0" result="hardAlpha"/>
<feOffset dy="4"/>
<feGaussianBlur stdDeviation="2"/>
<feComposite in2="hardAlpha" operator="arithmetic" k2="-1" k3="1"/>
<feColorMatrix type="matrix" values="0 0 0 0 1 0 0 0 0 1 0 0 0 0 1 0 0 0 0.15 0"/>
<feBlend mode="normal" in2="shape" result="effect2_innerShadow_234_363"/>
</filter>
<filter id="filter1_d_234_363" x="42" y="44" width="44" height="44" filterUnits="userSpaceOnUse" color-interpolation-filters="sRGB">
<feFlood flood-opacity="0" result="BackgroundImageFix"/>
<feColorMatrix in="SourceAlpha" type="matrix" values="0 0 0 0 0 0 0 0 0 0 0 0 0 0 0 0 0 0 127 0" result="hardAlpha"/>
<feOffset dy="4"/>
<feGaussianBlur stdDeviation="2"/>
<feComposite in2="hardAlpha" operator="out"/>
<feColorMatrix type="matrix" values="0 0 0 0 0 0 0 0 0 0 0 0 0 0 0 0 0 0 0.25 0"/>
<feBlend mode="normal" in2="BackgroundImageFix" result="effect1_dropShadow_234_363"/>
<feBlend mode="normal" in="SourceGraphic" in2="effect1_dropShadow_234_363" result="shape"/>
</filter>
<linearGradient id="paint0_linear_234_363" x1="64" y1="13" x2="64" y2="115" gradientUnits="userSpaceOnUse">
<stop stop-color="#00B3FF"/>
<stop offset="1" stop-color="#0060FF"/>
</linearGradient>
<linearGradient id="paint1_linear_234_363" x1="64" y1="103" x2="64" y2="115" gradientUnits="userSpaceOnUse">
<stop stop-color="#282828"/>
<stop offset="1" stop-color="#202020"/>
</linearGradient>
</defs>
</svg>
