<svg width="128" height="128" viewBox="0 0 128 128" fill="none" xmlns="http://www.w3.org/2000/svg">
<g filter="url(#filter0_d_235_472)">
<path d="M92 81V45C92 29.536 79.464 17 64 17V17C48.536 17 36 29.536 36 45V81" stroke="url(#paint0_linear_235_472)" stroke-width="8"/>
<path d="M92 81V45C92 29.536 79.464 17 64 17V17C48.536 17 36 29.536 36 45V81" stroke="black" stroke-opacity="0.25" stroke-width="8"/>
</g>
<g filter="url(#filter1_di_235_472)">
<circle cx="64" cy="78" r="37" fill="url(#paint1_linear_235_472)"/>
</g>
<g filter="url(#filter2_i_235_472)">
<circle cx="64" cy="78" r="30" fill="url(#paint2_linear_235_472)"/>
<circle cx="64" cy="78" r="30" fill="white" fill-opacity="0.66"/>
</g>
<path d="M64 46V68" stroke="#FF3232" stroke-opacity="0.33" stroke-width="4"/>
<circle cx="64" cy="78" r="23" stroke="url(#paint3_linear_235_472)" stroke-width="4" stroke-linecap="round" stroke-linejoin="round" stroke-dasharray="0.1 12"/>
<g filter="url(#filter3_d_235_472)">
<circle cx="64" cy="78" r="12" fill="#D9D9D9"/>
<circle cx="64" cy="78" r="12" fill="url(#paint4_linear_235_472)"/>
</g>
<mask id="mask0_235_472" style="mask-type:alpha" maskUnits="userSpaceOnUse" x="52" y="66" width="24" height="24">
<circle cx="64" cy="78" r="12" fill="white"/>
</mask>
<g mask="url(#mask0_235_472)">
<path d="M62 68C62 69.1046 62.8954 70 64 70C65.1046 70 66 69.1046 66 68H62ZM66 68V64H62V68H66Z" fill="#FF3232"/>
</g>
<mask id="mask1_235_472" style="mask-type:alpha" maskUnits="userSpaceOnUse" x="27" y="41" width="74" height="74">
<path fill-rule="evenodd" clip-rule="evenodd" d="M101 78C101 98.4345 84.4345 115 64 115C43.5655 115 27 98.4345 27 78C27 57.5655 43.5655 41 64 41C84.4345 41 101 57.5655 101 78ZM64 108C80.5685 108 94 94.5685 94 78C94 61.4315 80.5685 48 64 48C47.4315 48 34 61.4315 34 78C34 94.5685 47.4315 108 64 108Z" fill="#D9D9D9"/>
</mask>
<g mask="url(#mask1_235_472)">
<path d="M66 46C66 44.8954 65.1046 44 64 44C62.8954 44 62 44.8954 62 46H66ZM62 46V54H66V46H62Z" fill="#FF3232"/>
</g>
<defs>
<filter id="filter0_d_235_472" x="28" y="13" width="72" height="76" filterUnits="userSpaceOnUse" color-interpolation-filters="sRGB">
<feFlood flood-opacity="0" result="BackgroundImageFix"/>
<feColorMatrix in="SourceAlpha" type="matrix" values="0 0 0 0 0 0 0 0 0 0 0 0 0 0 0 0 0 0 127 0" result="hardAlpha"/>
<feOffset dy="4"/>
<feGaussianBlur stdDeviation="2"/>
<feComposite in2="hardAlpha" operator="out"/>
<feColorMatrix type="matrix" values="0 0 0 0 0 0 0 0 0 0 0 0 0 0 0 0 0 0 0.25 0"/>
<feBlend mode="normal" in2="BackgroundImageFix" result="effect1_dropShadow_235_472"/>
<feBlend mode="normal" in="SourceGraphic" in2="effect1_dropShadow_235_472" result="shape"/>
</filter>
<filter id="filter1_di_235_472" x="23" y="41" width="82" height="82" filterUnits="userSpaceOnUse" color-interpolation-filters="sRGB">
<feFlood flood-opacity="0" result="BackgroundImageFix"/>
<feColorMatrix in="SourceAlpha" type="matrix" values="0 0 0 0 0 0 0 0 0 0 0 0 0 0 0 0 0 0 127 0" result="hardAlpha"/>
<feOffset dy="4"/>
<feGaussianBlur stdDeviation="2"/>
<feComposite in2="hardAlpha" operator="out"/>
<feColorMatrix type="matrix" values="0 0 0 0 0 0 0 0 0 0 0 0 0 0 0 0 0 0 0.25 0"/>
<feBlend mode="normal" in2="BackgroundImageFix" result="effect1_dropShadow_235_472"/>
<feBlend mode="normal" in="SourceGraphic" in2="effect1_dropShadow_235_472" result="shape"/>
<feColorMatrix in="SourceAlpha" type="matrix" values="0 0 0 0 0 0 0 0 0 0 0 0 0 0 0 0 0 0 127 0" result="hardAlpha"/>
<feOffset dy="4"/>
<feGaussianBlur stdDeviation="2"/>
<feComposite in2="hardAlpha" operator="arithmetic" k2="-1" k3="1"/>
<feColorMatrix type="matrix" values="0 0 0 0 1 0 0 0 0 1 0 0 0 0 1 0 0 0 0.15 0"/>
<feBlend mode="normal" in2="shape" result="effect2_innerShadow_235_472"/>
</filter>
<filter id="filter2_i_235_472" x="34" y="48" width="60" height="64" filterUnits="userSpaceOnUse" color-interpolation-filters="sRGB">
<feFlood flood-opacity="0" result="BackgroundImageFix"/>
<feBlend mode="normal" in="SourceGraphic" in2="BackgroundImageFix" result="shape"/>
<feColorMatrix in="SourceAlpha" type="matrix" values="0 0 0 0 0 0 0 0 0 0 0 0 0 0 0 0 0 0 127 0" result="hardAlpha"/>
<feOffset dy="4"/>
<feGaussianBlur stdDeviation="2"/>
<feComposite in2="hardAlpha" operator="arithmetic" k2="-1" k3="1"/>
<feColorMatrix type="matrix" values="0 0 0 0 0 0 0 0 0 0 0 0 0 0 0 0 0 0 0.25 0"/>
<feBlend mode="normal" in2="shape" result="effect1_innerShadow_235_472"/>
</filter>
<filter id="filter3_d_235_472" x="48" y="66" width="32" height="32" filterUnits="userSpaceOnUse" color-interpolation-filters="sRGB">
<feFlood flood-opacity="0" result="BackgroundImageFix"/>
<feColorMatrix in="SourceAlpha" type="matrix" values="0 0 0 0 0 0 0 0 0 0 0 0 0 0 0 0 0 0 127 0" result="hardAlpha"/>
<feOffset dy="4"/>
<feGaussianBlur stdDeviation="2"/>
<feComposite in2="hardAlpha" operator="out"/>
<feColorMatrix type="matrix" values="0 0 0 0 0 0 0 0 0 0 0 0 0 0 0 0 0 0 0.25 0"/>
<feBlend mode="normal" in2="BackgroundImageFix" result="effect1_dropShadow_235_472"/>
<feBlend mode="normal" in="SourceGraphic" in2="effect1_dropShadow_235_472" result="shape"/>
</filter>
<linearGradient id="paint0_linear_235_472" x1="64" y1="17" x2="64" y2="54.5" gradientUnits="userSpaceOnUse">
<stop stop-color="#00FFA3"/>
<stop offset="1" stop-color="#00FFC2"/>
</linearGradient>
<linearGradient id="paint1_linear_235_472" x1="64" y1="41" x2="64" y2="115" gradientUnits="userSpaceOnUse">
<stop stop-color="#00FFC2"/>
<stop offset="1" stop-color="#0091B1"/>
</linearGradient>
<linearGradient id="paint2_linear_235_472" x1="64" y1="48" x2="64" y2="108" gradientUnits="userSpaceOnUse">
<stop stop-color="#00FFC2"/>
<stop offset="1" stop-color="#0091B1"/>
</linearGradient>
<linearGradient id="paint3_linear_235_472" x1="64" y1="55" x2="64" y2="101" gradientUnits="userSpaceOnUse">
<stop stop-color="#009B76"/>
<stop offset="1" stop-color="#00596C"/>
</linearGradient>
<linearGradient id="paint4_linear_235_472" x1="64" y1="41" x2="64" y2="114.5" gradientUnits="userSpaceOnUse">
<stop stop-color="#00FFC2"/>
<stop offset="1" stop-color="#0091B1"/>
</linearGradient>
</defs>
</svg>
