<svg width="128" height="128" viewBox="0 0 128 128" fill="none" xmlns="http://www.w3.org/2000/svg">
<circle cx="64" cy="64" r="51" fill="white"/>
<g style="mix-blend-mode:difference">
<path d="M38.5002 19.8328C62.8931 5.74951 94.0843 14.1071 108.168 38.5001C122.251 62.893 113.893 94.0841 89.5002 108.167C65.1073 122.251 33.9162 113.893 19.8329 89.5001C5.74966 65.1071 14.1073 33.916 38.5002 19.8328Z" fill="url(#paint0_radial_234_361)"/>
</g>
<g style="mix-blend-mode:difference">
<path d="M38.5002 108.167C14.1073 94.084 5.74966 62.8929 19.8329 38.5C33.9162 14.1071 65.1073 5.74943 89.5002 19.8327C113.893 33.916 122.251 65.1071 108.168 89.5C94.0843 113.893 62.8931 122.251 38.5002 108.167Z" fill="url(#paint1_radial_234_361)"/>
</g>
<g style="mix-blend-mode:difference">
<circle cx="51" cy="51" r="51" transform="matrix(-1 0 0 1 115 13)" fill="url(#paint2_radial_234_361)"/>
</g>
<g style="mix-blend-mode:lighten" filter="url(#filter0_di_234_361)">
<circle cx="51" cy="51" r="51" transform="matrix(-1 0 0 1 115 13)" fill="url(#paint3_radial_234_361)" fill-opacity="0.5" shape-rendering="crispEdges"/>
</g>
<g filter="url(#filter1_d_234_361)">
<path d="M21.4716 27.4008C21.4716 27.4008 18.1569 24.1569 21.0207 21.293C23.8846 18.4292 27.1285 21.7439 27.1285 21.7439C27.1285 21.7439 52.6152 40.1159 61.4385 50.3971C65.3307 54.9324 69.104 63.7194 69.104 63.7194L63.4471 69.3763C63.4471 69.3763 54.6601 65.603 50.1248 61.7108C39.8436 52.8875 21.4716 27.4008 21.4716 27.4008Z" fill="#606060"/>
<path d="M61.3259 50.2843L50.0122 61.598" stroke="#FF2272" stroke-width="4" stroke-linecap="round"/>
<rect x="63.4473" y="69.3762" width="8" height="8" transform="rotate(-45 63.4473 69.3762)" fill="#D0D0D0"/>
<path d="M88.4609 90.4107C85.0793 98.5746 75.7199 102.451 67.5559 99.0698C71.6379 100.761 76.3176 98.8222 78.0084 94.7403C79.6992 90.6583 77.7608 85.9786 73.6789 84.2878C69.5969 82.5969 67.6585 77.9172 69.3493 73.8352C71.0401 69.7533 75.7199 67.8149 79.8018 69.5057C87.9657 72.8873 91.8425 82.2468 88.4609 90.4107Z" fill="#404040"/>
</g>
<defs>
<filter id="filter0_di_234_361" x="9.00024" y="13" width="110" height="110" filterUnits="userSpaceOnUse" color-interpolation-filters="sRGB">
<feFlood flood-opacity="0" result="BackgroundImageFix"/>
<feColorMatrix in="SourceAlpha" type="matrix" values="0 0 0 0 0 0 0 0 0 0 0 0 0 0 0 0 0 0 127 0" result="hardAlpha"/>
<feOffset dy="4"/>
<feGaussianBlur stdDeviation="2"/>
<feComposite in2="hardAlpha" operator="out"/>
<feColorMatrix type="matrix" values="0 0 0 0 0 0 0 0 0 0 0 0 0 0 0 0 0 0 0.25 0"/>
<feBlend mode="normal" in2="BackgroundImageFix" result="effect1_dropShadow_234_361"/>
<feBlend mode="normal" in="SourceGraphic" in2="effect1_dropShadow_234_361" result="shape"/>
<feColorMatrix in="SourceAlpha" type="matrix" values="0 0 0 0 0 0 0 0 0 0 0 0 0 0 0 0 0 0 127 0" result="hardAlpha"/>
<feOffset dy="4"/>
<feGaussianBlur stdDeviation="2"/>
<feComposite in2="hardAlpha" operator="arithmetic" k2="-1" k3="1"/>
<feColorMatrix type="matrix" values="0 0 0 0 1 0 0 0 0 1 0 0 0 0 1 0 0 0 0.15 0"/>
<feBlend mode="normal" in2="shape" result="effect2_innerShadow_234_361"/>
</filter>
<filter id="filter1_d_234_361" x="15.8551" y="20.1274" width="77.828" height="88.1645" filterUnits="userSpaceOnUse" color-interpolation-filters="sRGB">
<feFlood flood-opacity="0" result="BackgroundImageFix"/>
<feColorMatrix in="SourceAlpha" type="matrix" values="0 0 0 0 0 0 0 0 0 0 0 0 0 0 0 0 0 0 127 0" result="hardAlpha"/>
<feOffset dy="4"/>
<feGaussianBlur stdDeviation="2"/>
<feComposite in2="hardAlpha" operator="out"/>
<feColorMatrix type="matrix" values="0 0 0 0 0 0 0 0 0 0 0 0 0 0 0 0 0 0 0.25 0"/>
<feBlend mode="normal" in2="BackgroundImageFix" result="effect1_dropShadow_234_361"/>
<feBlend mode="normal" in="SourceGraphic" in2="effect1_dropShadow_234_361" result="shape"/>
</filter>
<radialGradient id="paint0_radial_234_361" cx="0" cy="0" r="1" gradientUnits="userSpaceOnUse" gradientTransform="translate(19.8329 89.5001) rotate(-30) scale(102)">
<stop stop-color="#FF0000"/>
<stop offset="1" stop-color="#FF0000" stop-opacity="0"/>
</radialGradient>
<radialGradient id="paint1_radial_234_361" cx="0" cy="0" r="1" gradientUnits="userSpaceOnUse" gradientTransform="translate(108.167 89.5) rotate(-150) scale(102)">
<stop stop-color="#0000FF"/>
<stop offset="1" stop-color="#0000FF" stop-opacity="0"/>
</radialGradient>
<radialGradient id="paint2_radial_234_361" cx="0" cy="0" r="1" gradientUnits="userSpaceOnUse" gradientTransform="translate(51) rotate(90) scale(102)">
<stop stop-color="#00FF00"/>
<stop offset="1" stop-color="#00FF00" stop-opacity="0"/>
</radialGradient>
<radialGradient id="paint3_radial_234_361" cx="0" cy="0" r="1" gradientUnits="userSpaceOnUse" gradientTransform="translate(51 51) rotate(90) scale(51)">
<stop stop-color="white"/>
<stop offset="1" stop-color="white" stop-opacity="0.25"/>
</radialGradient>
</defs>
</svg>
