<svg width="128" height="128" viewBox="0 0 128 128" fill="none" xmlns="http://www.w3.org/2000/svg">
<g filter="url(#filter0_d_235_1704)">
<path d="M33 33L25 25" stroke="#F9F9F9" stroke-width="8" stroke-linecap="round"/>
<path d="M33 33L25 25" stroke="black" stroke-opacity="0.2" stroke-width="8" stroke-linecap="round"/>
</g>
<g filter="url(#filter1_d_235_1704)">
<path d="M95 33L103 25" stroke="#F9F9F9" stroke-width="8" stroke-linecap="round"/>
<path d="M95 33L103 25" stroke="black" stroke-opacity="0.2" stroke-width="8" stroke-linecap="round"/>
</g>
<g filter="url(#filter2_di_235_1704)">
<circle cx="64" cy="64" r="51" fill="url(#paint0_linear_235_1704)"/>
</g>
<g filter="url(#filter3_i_235_1704)">
<circle cx="64" cy="64" r="43" fill="url(#paint1_linear_235_1704)"/>
</g>
<path d="M64 29C70.0816 29 76.0583 30.5847 81.341 33.5979C86.6237 36.6111 91.0301 40.9488 94.1259 46.1835C97.2217 51.4183 98.9001 57.3693 98.9956 63.4502C99.0912 69.5311 97.6006 75.532 94.6707 80.8614C91.7408 86.1908 87.4729 90.6648 82.2874 93.8424C77.102 97.0201 71.178 98.7917 65.0993 98.9827C59.0207 99.1738 52.9972 97.7776 47.6224 94.9318C42.2477 92.086 37.7072 87.8888 34.4485 82.7539" stroke="url(#paint2_linear_235_1704)" stroke-width="6" stroke-linecap="round" stroke-linejoin="round" stroke-dasharray="4 9"/>
<path d="M43 64C41.3431 64 40 65.3431 40 67C40 68.6569 41.3431 70 43 70C44.6569 70 46 68.6569 46 67C46 65.3431 44.6569 64 43 64ZM43 64C44.6569 64 46 62.6569 46 61C46 59.3431 44.6569 58 43 58C41.3431 58 40 59.3431 40 61C40 62.6569 41.3431 64 43 64Z" stroke="black" stroke-opacity="0.5" stroke-width="2"/>
<rect x="39.5" y="57.5" width="7" height="13" rx="3.5" stroke="url(#paint3_linear_235_1704)" stroke-width="3"/>
<path d="M55 64C53.3431 64 52 65.3431 52 67C52 68.6569 53.3431 70 55 70C56.6569 70 58 68.6569 58 67C58 65.3431 56.6569 64 55 64ZM55 64C56.6569 64 58 62.6569 58 61C58 59.3431 56.6569 58 55 58C53.3431 58 52 59.3431 52 61C52 62.6569 53.3431 64 55 64Z" stroke="black" stroke-opacity="0.5" stroke-width="2"/>
<rect x="51.5" y="57.5" width="7" height="13" rx="3.5" stroke="url(#paint4_linear_235_1704)" stroke-width="3"/>
<rect x="62" y="60" width="3" height="3" rx="1.5" fill="#1FE5D9"/>
<rect x="62" y="65" width="3" height="3" rx="1.5" fill="#1FE5D9"/>
<path d="M72 64C70.3431 64 69 65.3431 69 67C69 68.6569 70.3431 70 72 70C73.6569 70 75 68.6569 75 67C75 65.3431 73.6569 64 72 64ZM72 64C73.6569 64 75 62.6569 75 61C75 59.3431 73.6569 58 72 58C70.3431 58 69 59.3431 69 61C69 62.6569 70.3431 64 72 64Z" stroke="black" stroke-opacity="0.5" stroke-width="2"/>
<rect x="68.5" y="57.5" width="7" height="13" rx="3.5" stroke="url(#paint5_linear_235_1704)" stroke-width="3"/>
<path d="M84 64C82.3431 64 81 65.3431 81 67C81 68.6569 82.3431 70 84 70C85.6569 70 87 68.6569 87 67C87 65.3431 85.6569 64 84 64ZM84 64C85.6569 64 87 62.6569 87 61C87 59.3431 85.6569 58 84 58C82.3431 58 81 59.3431 81 61C81 62.6569 82.3431 64 84 64Z" stroke="black" stroke-opacity="0.5" stroke-width="2"/>
<rect x="80.5" y="57.5" width="7" height="13" rx="3.5" stroke="url(#paint6_linear_235_1704)" stroke-width="3"/>
<g filter="url(#filter4_d_235_1704)">
<path d="M20 28L28 20" stroke="#F9F9F9" stroke-width="6" stroke-linecap="round"/>
</g>
<g filter="url(#filter5_d_235_1704)">
<path d="M108 28L100 20" stroke="#F9F9F9" stroke-width="6" stroke-linecap="round"/>
</g>
<defs>
<filter id="filter0_d_235_1704" x="17" y="21" width="24" height="24" filterUnits="userSpaceOnUse" color-interpolation-filters="sRGB">
<feFlood flood-opacity="0" result="BackgroundImageFix"/>
<feColorMatrix in="SourceAlpha" type="matrix" values="0 0 0 0 0 0 0 0 0 0 0 0 0 0 0 0 0 0 127 0" result="hardAlpha"/>
<feOffset dy="4"/>
<feGaussianBlur stdDeviation="2"/>
<feComposite in2="hardAlpha" operator="out"/>
<feColorMatrix type="matrix" values="0 0 0 0 0 0 0 0 0 0 0 0 0 0 0 0 0 0 0.25 0"/>
<feBlend mode="normal" in2="BackgroundImageFix" result="effect1_dropShadow_235_1704"/>
<feBlend mode="normal" in="SourceGraphic" in2="effect1_dropShadow_235_1704" result="shape"/>
</filter>
<filter id="filter1_d_235_1704" x="87" y="21" width="24" height="24" filterUnits="userSpaceOnUse" color-interpolation-filters="sRGB">
<feFlood flood-opacity="0" result="BackgroundImageFix"/>
<feColorMatrix in="SourceAlpha" type="matrix" values="0 0 0 0 0 0 0 0 0 0 0 0 0 0 0 0 0 0 127 0" result="hardAlpha"/>
<feOffset dy="4"/>
<feGaussianBlur stdDeviation="2"/>
<feComposite in2="hardAlpha" operator="out"/>
<feColorMatrix type="matrix" values="0 0 0 0 0 0 0 0 0 0 0 0 0 0 0 0 0 0 0.25 0"/>
<feBlend mode="normal" in2="BackgroundImageFix" result="effect1_dropShadow_235_1704"/>
<feBlend mode="normal" in="SourceGraphic" in2="effect1_dropShadow_235_1704" result="shape"/>
</filter>
<filter id="filter2_di_235_1704" x="9" y="13" width="110" height="110" filterUnits="userSpaceOnUse" color-interpolation-filters="sRGB">
<feFlood flood-opacity="0" result="BackgroundImageFix"/>
<feColorMatrix in="SourceAlpha" type="matrix" values="0 0 0 0 0 0 0 0 0 0 0 0 0 0 0 0 0 0 127 0" result="hardAlpha"/>
<feOffset dy="4"/>
<feGaussianBlur stdDeviation="2"/>
<feComposite in2="hardAlpha" operator="out"/>
<feColorMatrix type="matrix" values="0 0 0 0 0 0 0 0 0 0 0 0 0 0 0 0 0 0 0.25 0"/>
<feBlend mode="normal" in2="BackgroundImageFix" result="effect1_dropShadow_235_1704"/>
<feBlend mode="normal" in="SourceGraphic" in2="effect1_dropShadow_235_1704" result="shape"/>
<feColorMatrix in="SourceAlpha" type="matrix" values="0 0 0 0 0 0 0 0 0 0 0 0 0 0 0 0 0 0 127 0" result="hardAlpha"/>
<feOffset dy="4"/>
<feGaussianBlur stdDeviation="2"/>
<feComposite in2="hardAlpha" operator="arithmetic" k2="-1" k3="1"/>
<feColorMatrix type="matrix" values="0 0 0 0 1 0 0 0 0 1 0 0 0 0 1 0 0 0 0.15 0"/>
<feBlend mode="normal" in2="shape" result="effect2_innerShadow_235_1704"/>
</filter>
<filter id="filter3_i_235_1704" x="21" y="21" width="86" height="90" filterUnits="userSpaceOnUse" color-interpolation-filters="sRGB">
<feFlood flood-opacity="0" result="BackgroundImageFix"/>
<feBlend mode="normal" in="SourceGraphic" in2="BackgroundImageFix" result="shape"/>
<feColorMatrix in="SourceAlpha" type="matrix" values="0 0 0 0 0 0 0 0 0 0 0 0 0 0 0 0 0 0 127 0" result="hardAlpha"/>
<feOffset dy="4"/>
<feGaussianBlur stdDeviation="2"/>
<feComposite in2="hardAlpha" operator="arithmetic" k2="-1" k3="1"/>
<feColorMatrix type="matrix" values="0 0 0 0 0 0 0 0 0 0 0 0 0 0 0 0 0 0 0.25 0"/>
<feBlend mode="normal" in2="shape" result="effect1_innerShadow_235_1704"/>
</filter>
<filter id="filter4_d_235_1704" x="13" y="17" width="22" height="22" filterUnits="userSpaceOnUse" color-interpolation-filters="sRGB">
<feFlood flood-opacity="0" result="BackgroundImageFix"/>
<feColorMatrix in="SourceAlpha" type="matrix" values="0 0 0 0 0 0 0 0 0 0 0 0 0 0 0 0 0 0 127 0" result="hardAlpha"/>
<feOffset dy="4"/>
<feGaussianBlur stdDeviation="2"/>
<feComposite in2="hardAlpha" operator="out"/>
<feColorMatrix type="matrix" values="0 0 0 0 0 0 0 0 0 0 0 0 0 0 0 0 0 0 0.25 0"/>
<feBlend mode="normal" in2="BackgroundImageFix" result="effect1_dropShadow_235_1704"/>
<feBlend mode="normal" in="SourceGraphic" in2="effect1_dropShadow_235_1704" result="shape"/>
</filter>
<filter id="filter5_d_235_1704" x="93" y="17" width="22" height="22" filterUnits="userSpaceOnUse" color-interpolation-filters="sRGB">
<feFlood flood-opacity="0" result="BackgroundImageFix"/>
<feColorMatrix in="SourceAlpha" type="matrix" values="0 0 0 0 0 0 0 0 0 0 0 0 0 0 0 0 0 0 127 0" result="hardAlpha"/>
<feOffset dy="4"/>
<feGaussianBlur stdDeviation="2"/>
<feComposite in2="hardAlpha" operator="out"/>
<feColorMatrix type="matrix" values="0 0 0 0 0 0 0 0 0 0 0 0 0 0 0 0 0 0 0.25 0"/>
<feBlend mode="normal" in2="BackgroundImageFix" result="effect1_dropShadow_235_1704"/>
<feBlend mode="normal" in="SourceGraphic" in2="effect1_dropShadow_235_1704" result="shape"/>
</filter>
<linearGradient id="paint0_linear_235_1704" x1="64" y1="13" x2="64" y2="115" gradientUnits="userSpaceOnUse">
<stop stop-color="white"/>
<stop offset="1" stop-color="#BBBBBB"/>
</linearGradient>
<linearGradient id="paint1_linear_235_1704" x1="64" y1="21" x2="64" y2="107" gradientUnits="userSpaceOnUse">
<stop stop-color="#003869"/>
<stop offset="1" stop-color="#007157"/>
</linearGradient>
<linearGradient id="paint2_linear_235_1704" x1="66.7242" y1="29" x2="66.7242" y2="99" gradientUnits="userSpaceOnUse">
<stop stop-color="#40CAFF"/>
<stop offset="1" stop-color="#00FFB3"/>
</linearGradient>
<linearGradient id="paint3_linear_235_1704" x1="43" y1="56" x2="43" y2="72" gradientUnits="userSpaceOnUse">
<stop stop-color="#2BDBE7"/>
<stop offset="1" stop-color="#13E7C5"/>
</linearGradient>
<linearGradient id="paint4_linear_235_1704" x1="55" y1="56" x2="55" y2="72" gradientUnits="userSpaceOnUse">
<stop stop-color="#2BDBE7"/>
<stop offset="1" stop-color="#13E7C5"/>
</linearGradient>
<linearGradient id="paint5_linear_235_1704" x1="72" y1="56" x2="72" y2="72" gradientUnits="userSpaceOnUse">
<stop stop-color="#2BDBE7"/>
<stop offset="1" stop-color="#13E7C5"/>
</linearGradient>
<linearGradient id="paint6_linear_235_1704" x1="84" y1="56" x2="84" y2="72" gradientUnits="userSpaceOnUse">
<stop stop-color="#2BDBE7"/>
<stop offset="1" stop-color="#13E7C5"/>
</linearGradient>
</defs>
</svg>
