<svg width="128" height="128" viewBox="0 0 128 128" fill="none" xmlns="http://www.w3.org/2000/svg">
<g filter="url(#filter0_di_234_369)">
<rect x="27" y="13" width="74" height="102" rx="12" fill="url(#paint0_linear_234_369)"/>
</g>
<path d="M33 44L95 44" stroke="#894D51" stroke-width="2" stroke-linecap="round"/>
<mask id="mask0_234_369" style="mask-type:alpha" maskUnits="userSpaceOnUse" x="27" y="19" width="74" height="24">
<rect x="27" y="19" width="74" height="24" fill="#D9D9D9"/>
</mask>
<g mask="url(#mask0_234_369)">
<g filter="url(#filter1_d_234_369)">
<path d="M45 19C39.4772 19 35 23.4772 35 29V43H93V29C93 23.4772 88.5228 19 83 19L45 19Z" fill="white"/>
<path d="M45 19C39.4772 19 35 23.4772 35 29V43H93V29C93 23.4772 88.5228 19 83 19L45 19Z" fill="url(#paint1_linear_234_369)"/>
</g>
<rect width="24" height="12" transform="matrix(0 1 1 0 71 19)" fill="#002056"/>
</g>
<path d="M33 73H95" stroke="#772C45" stroke-width="2" stroke-linecap="round"/>
<mask id="mask1_234_369" style="mask-type:alpha" maskUnits="userSpaceOnUse" x="27" y="48" width="74" height="24">
<rect x="27" y="48" width="74" height="24" fill="#D9D9D9"/>
</mask>
<g mask="url(#mask1_234_369)">
<g filter="url(#filter2_d_234_369)">
<path d="M45 48C39.4772 48 35 52.4772 35 58V72H93V58C93 52.4772 88.5228 48 83 48H45Z" fill="white"/>
</g>
<path d="M45 52C41.6863 52 39 54.6863 39 58V70C39 73.3137 41.6863 76 45 76H57C60.3137 76 63 73.3137 63 70V58C63 54.6863 60.3137 52 57 52H45Z" fill="url(#paint2_linear_234_369)"/>
<rect width="16" height="8" rx="4" transform="matrix(0 1 1 0 52 56)" fill="#FFCCC0"/>
<rect width="8" height="8" rx="4" transform="matrix(0 1 1 0 42 60)" fill="#FFCCC0"/>
</g>
<path d="M101 103H27C27 109.627 32.3726 115 39 115H89C95.6274 115 101 109.627 101 103Z" fill="url(#paint3_linear_234_369)" fill-opacity="0.5"/>
<defs>
<filter id="filter0_di_234_369" x="23" y="13" width="82" height="110" filterUnits="userSpaceOnUse" color-interpolation-filters="sRGB">
<feFlood flood-opacity="0" result="BackgroundImageFix"/>
<feColorMatrix in="SourceAlpha" type="matrix" values="0 0 0 0 0 0 0 0 0 0 0 0 0 0 0 0 0 0 127 0" result="hardAlpha"/>
<feOffset dy="4"/>
<feGaussianBlur stdDeviation="2"/>
<feComposite in2="hardAlpha" operator="out"/>
<feColorMatrix type="matrix" values="0 0 0 0 0 0 0 0 0 0 0 0 0 0 0 0 0 0 0.25 0"/>
<feBlend mode="normal" in2="BackgroundImageFix" result="effect1_dropShadow_234_369"/>
<feBlend mode="normal" in="SourceGraphic" in2="effect1_dropShadow_234_369" result="shape"/>
<feColorMatrix in="SourceAlpha" type="matrix" values="0 0 0 0 0 0 0 0 0 0 0 0 0 0 0 0 0 0 127 0" result="hardAlpha"/>
<feOffset dy="4"/>
<feGaussianBlur stdDeviation="2"/>
<feComposite in2="hardAlpha" operator="arithmetic" k2="-1" k3="1"/>
<feColorMatrix type="matrix" values="0 0 0 0 1 0 0 0 0 1 0 0 0 0 1 0 0 0 0.15 0"/>
<feBlend mode="normal" in2="shape" result="effect2_innerShadow_234_369"/>
</filter>
<filter id="filter1_d_234_369" x="31" y="19" width="66" height="32" filterUnits="userSpaceOnUse" color-interpolation-filters="sRGB">
<feFlood flood-opacity="0" result="BackgroundImageFix"/>
<feColorMatrix in="SourceAlpha" type="matrix" values="0 0 0 0 0 0 0 0 0 0 0 0 0 0 0 0 0 0 127 0" result="hardAlpha"/>
<feOffset dy="4"/>
<feGaussianBlur stdDeviation="2"/>
<feComposite in2="hardAlpha" operator="out"/>
<feColorMatrix type="matrix" values="0 0 0 0 0 0 0 0 0 0 0 0 0 0 0 0 0 0 0.25 0"/>
<feBlend mode="normal" in2="BackgroundImageFix" result="effect1_dropShadow_234_369"/>
<feBlend mode="normal" in="SourceGraphic" in2="effect1_dropShadow_234_369" result="shape"/>
</filter>
<filter id="filter2_d_234_369" x="31" y="48" width="66" height="32" filterUnits="userSpaceOnUse" color-interpolation-filters="sRGB">
<feFlood flood-opacity="0" result="BackgroundImageFix"/>
<feColorMatrix in="SourceAlpha" type="matrix" values="0 0 0 0 0 0 0 0 0 0 0 0 0 0 0 0 0 0 127 0" result="hardAlpha"/>
<feOffset dy="4"/>
<feGaussianBlur stdDeviation="2"/>
<feComposite in2="hardAlpha" operator="out"/>
<feColorMatrix type="matrix" values="0 0 0 0 0 0 0 0 0 0 0 0 0 0 0 0 0 0 0.25 0"/>
<feBlend mode="normal" in2="BackgroundImageFix" result="effect1_dropShadow_234_369"/>
<feBlend mode="normal" in="SourceGraphic" in2="effect1_dropShadow_234_369" result="shape"/>
</filter>
<linearGradient id="paint0_linear_234_369" x1="64" y1="115" x2="64" y2="13" gradientUnits="userSpaceOnUse">
<stop stop-color="#FF5693"/>
<stop offset="1" stop-color="#FF8277"/>
</linearGradient>
<linearGradient id="paint1_linear_234_369" x1="35" y1="31" x2="93" y2="31" gradientUnits="userSpaceOnUse">
<stop stop-color="#5785D2"/>
<stop offset="1" stop-color="#003EA5"/>
</linearGradient>
<linearGradient id="paint2_linear_234_369" x1="39" y1="64" x2="63" y2="64" gradientUnits="userSpaceOnUse">
<stop stop-color="#FF8E4F"/>
<stop offset="1" stop-color="#FF6948"/>
</linearGradient>
<linearGradient id="paint3_linear_234_369" x1="64" y1="103" x2="64" y2="115" gradientUnits="userSpaceOnUse">
<stop stop-color="#282828"/>
<stop offset="1" stop-color="#202020"/>
</linearGradient>
</defs>
</svg>
