<svg width="128" height="128" viewBox="0 0 128 128" fill="none" xmlns="http://www.w3.org/2000/svg">
<g filter="url(#filter0_di_235_1688)">
<rect x="20" y="20" width="88" height="88" rx="12" fill="white"/>
</g>
<path d="M20 42L60.4223 62.2111C62.6745 63.3373 65.3255 63.3373 67.5777 62.2111L108 42V96C108 102.627 102.627 108 96 108H32C25.3726 108 20 102.627 20 96V42Z" fill="url(#paint0_linear_235_1688)"/>
<path d="M60.4223 62.2111L20 42V50L60.4223 70.2111C62.6745 71.3373 65.3255 71.3373 67.5777 70.2111L108 50V42L67.5777 62.2111C65.3255 63.3373 62.6745 63.3373 60.4223 62.2111Z" fill="white" fill-opacity="0.5"/>
<defs>
<filter id="filter0_di_235_1688" x="16" y="20" width="96" height="96" filterUnits="userSpaceOnUse" color-interpolation-filters="sRGB">
<feFlood flood-opacity="0" result="BackgroundImageFix"/>
<feColorMatrix in="SourceAlpha" type="matrix" values="0 0 0 0 0 0 0 0 0 0 0 0 0 0 0 0 0 0 127 0" result="hardAlpha"/>
<feOffset dy="4"/>
<feGaussianBlur stdDeviation="2"/>
<feComposite in2="hardAlpha" operator="out"/>
<feColorMatrix type="matrix" values="0 0 0 0 0 0 0 0 0 0 0 0 0 0 0 0 0 0 0.25 0"/>
<feBlend mode="normal" in2="BackgroundImageFix" result="effect1_dropShadow_235_1688"/>
<feBlend mode="normal" in="SourceGraphic" in2="effect1_dropShadow_235_1688" result="shape"/>
<feColorMatrix in="SourceAlpha" type="matrix" values="0 0 0 0 0 0 0 0 0 0 0 0 0 0 0 0 0 0 127 0" result="hardAlpha"/>
<feOffset dy="4"/>
<feGaussianBlur stdDeviation="2"/>
<feComposite in2="hardAlpha" operator="arithmetic" k2="-1" k3="1"/>
<feColorMatrix type="matrix" values="0 0 0 0 1 0 0 0 0 1 0 0 0 0 1 0 0 0 0.15 0"/>
<feBlend mode="normal" in2="shape" result="effect2_innerShadow_235_1688"/>
</filter>
<linearGradient id="paint0_linear_235_1688" x1="64" y1="42" x2="64" y2="108" gradientUnits="userSpaceOnUse">
<stop stop-color="#35B9FB"/>
<stop offset="1" stop-color="#7C22D5"/>
</linearGradient>
</defs>
</svg>
