<svg width="128" height="128" viewBox="0 0 128 128" fill="none" xmlns="http://www.w3.org/2000/svg">
<g filter="url(#filter0_di_235_1640)">
<rect x="20" y="20" width="88" height="88" rx="12" fill="url(#paint0_linear_235_1640)"/>
</g>
<g filter="url(#filter1_d_235_1640)">
<path d="M43.1798 89.7027C40.2734 86.7964 40.2734 82.0843 43.1798 79.178L69.4917 52.866C72.3981 49.9596 77.1102 49.9596 80.0165 52.866L43.1798 89.7027Z" fill="#FF4059"/>
<path d="M42.522 83.7826C42.1587 83.4193 42.1587 82.8302 42.522 82.467L45.1532 79.8358C45.5164 79.4725 46.1055 79.4725 46.4688 79.8358L47.7844 81.1514C48.1476 81.5146 48.1476 82.1037 47.7844 82.467L45.1532 85.0981C44.7899 85.4614 44.2008 85.4614 43.8376 85.0981L42.522 83.7826Z" fill="white"/>
<path d="M48.0475 78.257C47.6842 77.8937 47.6842 77.3047 48.0475 76.9414L50.6787 74.3102C51.042 73.9469 51.631 73.9469 51.9943 74.3102L53.3099 75.6258C53.6732 75.9891 53.6732 76.5781 53.3099 76.9414L50.6787 79.5726C50.3154 79.9359 49.7264 79.9359 49.3631 79.5726L48.0475 78.257Z" fill="white"/>
<path d="M53.573 72.7315C53.2097 72.3682 53.2097 71.7792 53.573 71.4159L56.2042 68.7847C56.5675 68.4214 57.1565 68.4214 57.5198 68.7847L58.8354 70.1003C59.1987 70.4636 59.1987 71.0526 58.8354 71.4159L56.2042 74.0471C55.8409 74.4104 55.2519 74.4104 54.8886 74.0471L53.573 72.7315Z" fill="white"/>
<path d="M59.0985 67.206C58.7352 66.8427 58.7352 66.2537 59.0985 65.8904L61.7297 63.2592C62.093 62.8959 62.682 62.8959 63.0453 63.2592L64.3609 64.5748C64.7242 64.9381 64.7242 65.5271 64.3609 65.8904L61.7297 68.5216C61.3664 68.8849 60.7774 68.8849 60.4141 68.5216L59.0985 67.206Z" fill="white"/>
<path d="M64.624 61.6805C64.2607 61.3172 64.2607 60.7282 64.624 60.3649L67.2552 57.7337C67.6185 57.3704 68.2075 57.3704 68.5708 57.7337L69.8864 59.0493C70.2497 59.4126 70.2497 60.0016 69.8864 60.3649L67.2552 62.9961C66.8919 63.3594 66.3029 63.3594 65.9396 62.9961L64.624 61.6805Z" fill="white"/>
<path d="M70.1495 56.155C69.7862 55.7917 69.7862 55.2027 70.1495 54.8394L72.7807 52.2082C73.144 51.8449 73.733 51.8449 74.0963 52.2082L75.4119 53.5238C75.7752 53.8871 75.7752 54.4761 75.4119 54.8394L72.7807 57.4706C72.4174 57.8339 71.8284 57.8339 71.4651 57.4706L70.1495 56.155Z" fill="white"/>
<path d="M85.2789 58.1284L80.0165 52.866L43.1798 89.7027L51.0733 97.5963L87.2061 61.4636C86.8798 60.2418 86.2374 59.0869 85.2789 58.1284Z" fill="#E31637"/>
<path d="M85.2789 58.1284L80.0165 52.866L43.1798 89.7027L51.0733 97.5963L87.2061 61.4636C86.8798 60.2418 86.2374 59.0869 85.2789 58.1284Z" fill="black" fill-opacity="0.25"/>
<path d="M56.3357 97.5963L85.2789 68.6532C87.2267 66.7053 87.8691 63.9464 87.2061 61.4636L51.0733 97.5963C52.5265 99.0495 54.8826 99.0495 56.3357 97.5963Z" fill="#FF294A"/>
<path d="M56.3357 97.5963L85.2789 68.6532C87.2267 66.7053 87.8691 63.9464 87.2061 61.4636L51.0733 97.5963C52.5265 99.0495 54.8826 99.0495 56.3357 97.5963Z" fill="black" fill-opacity="0.25"/>
</g>
<g filter="url(#filter2_d_235_1640)">
<path d="M85.8202 68.0165C88.7266 65.1102 88.7266 60.3981 85.8202 57.4917L59.5083 31.1798C56.6019 28.2734 51.8898 28.2734 48.9835 31.1798L85.8202 68.0165Z" fill="#FF4059"/>
<path d="M77.9267 75.9101L41.0899 39.0734C39.6367 40.5265 39.6367 42.8826 41.0899 44.3357L72.6643 75.9101C74.1174 77.3633 76.4735 77.3633 77.9267 75.9101Z" fill="#FF294A"/>
<path d="M85.8202 68.0165L48.9835 31.1798L41.0899 39.0734L77.9267 75.9101L85.8202 68.0165Z" fill="#E31637"/>
<path d="M86.478 62.0963C86.8413 61.733 86.8413 61.144 86.478 60.7807L83.8469 58.1495C83.4836 57.7862 82.8945 57.7862 82.5312 58.1495L81.2156 59.4651C80.8524 59.8284 80.8524 60.4174 81.2156 60.7807L83.8469 63.4119C84.2101 63.7752 84.7992 63.7752 85.1624 63.4119L86.478 62.0963Z" fill="white"/>
<path d="M80.9525 56.5708C81.3158 56.2075 81.3158 55.6185 80.9525 55.2552L78.3213 52.624C77.958 52.2607 77.369 52.2607 77.0057 52.624L75.6901 53.9396C75.3268 54.3029 75.3268 54.8919 75.6901 55.2552L78.3213 57.8864C78.6846 58.2497 79.2736 58.2497 79.6369 57.8864L80.9525 56.5708Z" fill="white"/>
<path d="M75.427 51.0453C75.7903 50.682 75.7903 50.093 75.427 49.7297L72.7958 47.0985C72.4325 46.7352 71.8435 46.7352 71.4802 47.0985L70.1646 48.4141C69.8013 48.7774 69.8013 49.3664 70.1646 49.7297L72.7958 52.3609C73.1591 52.7242 73.7481 52.7242 74.1114 52.3609L75.427 51.0453Z" fill="white"/>
<path d="M69.9015 45.5198C70.2648 45.1565 70.2648 44.5675 69.9015 44.2042L67.2703 41.573C66.907 41.2097 66.318 41.2097 65.9547 41.573L64.6391 42.8886C64.2758 43.2519 64.2758 43.8409 64.6391 44.2042L67.2703 46.8354C67.6336 47.1987 68.2226 47.1987 68.5859 46.8354L69.9015 45.5198Z" fill="white"/>
<path d="M64.376 39.9943C64.7393 39.631 64.7393 39.042 64.376 38.6787L61.7448 36.0475C61.3815 35.6842 60.7925 35.6842 60.4292 36.0475L59.1136 37.3631C58.7503 37.7264 58.7503 38.3154 59.1136 38.6787L61.7448 41.3099C62.1081 41.6732 62.6971 41.6732 63.0604 41.3099L64.376 39.9943Z" fill="white"/>
<path d="M58.8505 34.4688C59.2138 34.1055 59.2138 33.5164 58.8505 33.1532L56.2193 30.522C55.856 30.1587 55.267 30.1587 54.9037 30.522L53.5881 31.8376C53.2248 32.2008 53.2248 32.7899 53.5881 33.1532L56.2193 35.7844C56.5826 36.1476 57.1716 36.1476 57.5349 35.7844L58.8505 34.4688Z" fill="white"/>
</g>
<defs>
<filter id="filter0_di_235_1640" x="16" y="20" width="96" height="96" filterUnits="userSpaceOnUse" color-interpolation-filters="sRGB">
<feFlood flood-opacity="0" result="BackgroundImageFix"/>
<feColorMatrix in="SourceAlpha" type="matrix" values="0 0 0 0 0 0 0 0 0 0 0 0 0 0 0 0 0 0 127 0" result="hardAlpha"/>
<feOffset dy="4"/>
<feGaussianBlur stdDeviation="2"/>
<feComposite in2="hardAlpha" operator="out"/>
<feColorMatrix type="matrix" values="0 0 0 0 0 0 0 0 0 0 0 0 0 0 0 0 0 0 0.25 0"/>
<feBlend mode="normal" in2="BackgroundImageFix" result="effect1_dropShadow_235_1640"/>
<feBlend mode="normal" in="SourceGraphic" in2="effect1_dropShadow_235_1640" result="shape"/>
<feColorMatrix in="SourceAlpha" type="matrix" values="0 0 0 0 0 0 0 0 0 0 0 0 0 0 0 0 0 0 127 0" result="hardAlpha"/>
<feOffset dy="4"/>
<feGaussianBlur stdDeviation="2"/>
<feComposite in2="hardAlpha" operator="arithmetic" k2="-1" k3="1"/>
<feColorMatrix type="matrix" values="0 0 0 0 1 0 0 0 0 1 0 0 0 0 1 0 0 0 0.15 0"/>
<feBlend mode="normal" in2="shape" result="effect2_innerShadow_235_1640"/>
</filter>
<filter id="filter1_d_235_1640" x="37" y="50.6862" width="54.4587" height="56" filterUnits="userSpaceOnUse" color-interpolation-filters="sRGB">
<feFlood flood-opacity="0" result="BackgroundImageFix"/>
<feColorMatrix in="SourceAlpha" type="matrix" values="0 0 0 0 0 0 0 0 0 0 0 0 0 0 0 0 0 0 127 0" result="hardAlpha"/>
<feOffset dy="4"/>
<feGaussianBlur stdDeviation="2"/>
<feComposite in2="hardAlpha" operator="out"/>
<feColorMatrix type="matrix" values="0 0 0 0 0 0 0 0 0 0 0 0 0 0 0 0 0 0 0.25 0"/>
<feBlend mode="normal" in2="BackgroundImageFix" result="effect1_dropShadow_235_1640"/>
<feBlend mode="normal" in="SourceGraphic" in2="effect1_dropShadow_235_1640" result="shape"/>
</filter>
<filter id="filter2_d_235_1640" x="36" y="29" width="56" height="56" filterUnits="userSpaceOnUse" color-interpolation-filters="sRGB">
<feFlood flood-opacity="0" result="BackgroundImageFix"/>
<feColorMatrix in="SourceAlpha" type="matrix" values="0 0 0 0 0 0 0 0 0 0 0 0 0 0 0 0 0 0 127 0" result="hardAlpha"/>
<feOffset dy="4"/>
<feGaussianBlur stdDeviation="2"/>
<feComposite in2="hardAlpha" operator="out"/>
<feColorMatrix type="matrix" values="0 0 0 0 0 0 0 0 0 0 0 0 0 0 0 0 0 0 0.25 0"/>
<feBlend mode="normal" in2="BackgroundImageFix" result="effect1_dropShadow_235_1640"/>
<feBlend mode="normal" in="SourceGraphic" in2="effect1_dropShadow_235_1640" result="shape"/>
</filter>
<linearGradient id="paint0_linear_235_1640" x1="64" y1="20" x2="64" y2="108" gradientUnits="userSpaceOnUse">
<stop stop-color="#004381"/>
<stop offset="1" stop-color="#00264D"/>
</linearGradient>
</defs>
</svg>
