<svg width="128" height="128" viewBox="0 0 128 128" fill="none" xmlns="http://www.w3.org/2000/svg">
<g filter="url(#filter0_di_58_108)">
<path d="M119 62C121.761 62 124.022 64.2464 123.795 66.9985C121.391 96.1487 98.1487 119.391 68.9985 121.795C66.2464 122.022 64 119.761 64 117V94C81.6731 94 96 79.6731 96 62H119Z" fill="url(#paint0_linear_58_108)"/>
<path d="M64 30V7C64 4.23858 61.7536 1.97827 59.0015 2.20524C29.8513 4.60935 6.60936 27.8513 4.20525 57.0015C3.97827 59.7536 6.23858 62 9 62H32C32 44.3269 46.3269 30 64 30Z" fill="url(#paint1_linear_58_108)"/>
</g>
<g filter="url(#filter1_di_58_108)">
<path d="M104 62C106.761 62 109.029 64.2472 108.726 66.992C106.243 89.4956 87.1655 107 64 107C39.1472 107 19 86.8528 19 62C19 38.8345 36.5044 19.7573 59.008 17.2738C61.7528 16.9708 64 19.2386 64 22V30C46.3269 30 32 44.3269 32 62C32 79.6731 46.3269 94 64 94C81.6731 94 96 79.6731 96 62H104Z" fill="url(#paint2_linear_58_108)"/>
</g>
<g filter="url(#filter2_di_58_108)">
<path fill-rule="evenodd" clip-rule="evenodd" d="M64 94C81.6731 94 96 79.6731 96 62C96 44.3269 81.6731 30 64 30C46.3269 30 32 44.3269 32 62C32 79.6731 46.3269 94 64 94ZM64 80C73.9411 80 82 71.9411 82 62C82 52.0589 73.9411 44 64 44C54.0589 44 46 52.0589 46 62C46 71.9411 54.0589 80 64 80Z" fill="url(#paint3_linear_58_108)"/>
</g>
<defs>
<filter id="filter0_di_58_108" x="4.18951" y="2.18951" width="119.621" height="123.621" filterUnits="userSpaceOnUse" color-interpolation-filters="sRGB">
<feFlood flood-opacity="0" result="BackgroundImageFix"/>
<feColorMatrix in="SourceAlpha" type="matrix" values="0 0 0 0 0 0 0 0 0 0 0 0 0 0 0 0 0 0 127 0" result="hardAlpha"/>
<feOffset dy="4"/>
<feComposite in2="hardAlpha" operator="out"/>
<feColorMatrix type="matrix" values="0 0 0 0 0 0 0 0 0 0 0 0 0 0 0 0 0 0 0.25 0"/>
<feBlend mode="normal" in2="BackgroundImageFix" result="effect1_dropShadow_58_108"/>
<feBlend mode="normal" in="SourceGraphic" in2="effect1_dropShadow_58_108" result="shape"/>
<feColorMatrix in="SourceAlpha" type="matrix" values="0 0 0 0 0 0 0 0 0 0 0 0 0 0 0 0 0 0 127 0" result="hardAlpha"/>
<feOffset dy="4"/>
<feComposite in2="hardAlpha" operator="arithmetic" k2="-1" k3="1"/>
<feColorMatrix type="matrix" values="0 0 0 0 1 0 0 0 0 1 0 0 0 0 1 0 0 0 0.25 0"/>
<feBlend mode="normal" in2="shape" result="effect2_innerShadow_58_108"/>
</filter>
<filter id="filter1_di_58_108" x="19" y="17.2466" width="89.7534" height="93.7534" filterUnits="userSpaceOnUse" color-interpolation-filters="sRGB">
<feFlood flood-opacity="0" result="BackgroundImageFix"/>
<feColorMatrix in="SourceAlpha" type="matrix" values="0 0 0 0 0 0 0 0 0 0 0 0 0 0 0 0 0 0 127 0" result="hardAlpha"/>
<feOffset dy="4"/>
<feComposite in2="hardAlpha" operator="out"/>
<feColorMatrix type="matrix" values="0 0 0 0 0 0 0 0 0 0 0 0 0 0 0 0 0 0 0.25 0"/>
<feBlend mode="normal" in2="BackgroundImageFix" result="effect1_dropShadow_58_108"/>
<feBlend mode="normal" in="SourceGraphic" in2="effect1_dropShadow_58_108" result="shape"/>
<feColorMatrix in="SourceAlpha" type="matrix" values="0 0 0 0 0 0 0 0 0 0 0 0 0 0 0 0 0 0 127 0" result="hardAlpha"/>
<feOffset dy="4"/>
<feComposite in2="hardAlpha" operator="arithmetic" k2="-1" k3="1"/>
<feColorMatrix type="matrix" values="0 0 0 0 1 0 0 0 0 1 0 0 0 0 1 0 0 0 0.25 0"/>
<feBlend mode="normal" in2="shape" result="effect2_innerShadow_58_108"/>
</filter>
<filter id="filter2_di_58_108" x="32" y="30" width="64" height="68" filterUnits="userSpaceOnUse" color-interpolation-filters="sRGB">
<feFlood flood-opacity="0" result="BackgroundImageFix"/>
<feColorMatrix in="SourceAlpha" type="matrix" values="0 0 0 0 0 0 0 0 0 0 0 0 0 0 0 0 0 0 127 0" result="hardAlpha"/>
<feOffset dy="4"/>
<feComposite in2="hardAlpha" operator="out"/>
<feColorMatrix type="matrix" values="0 0 0 0 0 0 0 0 0 0 0 0 0 0 0 0 0 0 0.25 0"/>
<feBlend mode="normal" in2="BackgroundImageFix" result="effect1_dropShadow_58_108"/>
<feBlend mode="normal" in="SourceGraphic" in2="effect1_dropShadow_58_108" result="shape"/>
<feColorMatrix in="SourceAlpha" type="matrix" values="0 0 0 0 0 0 0 0 0 0 0 0 0 0 0 0 0 0 127 0" result="hardAlpha"/>
<feOffset dy="4"/>
<feComposite in2="hardAlpha" operator="arithmetic" k2="-1" k3="1"/>
<feColorMatrix type="matrix" values="0 0 0 0 1 0 0 0 0 1 0 0 0 0 1 0 0 0 0.25 0"/>
<feBlend mode="normal" in2="shape" result="effect2_innerShadow_58_108"/>
</filter>
<linearGradient id="paint0_linear_58_108" x1="64" y1="2" x2="64" y2="122" gradientUnits="userSpaceOnUse">
<stop stop-color="#59605F"/>
<stop offset="1" stop-color="#303235"/>
</linearGradient>
<linearGradient id="paint1_linear_58_108" x1="64" y1="2" x2="64" y2="122" gradientUnits="userSpaceOnUse">
<stop stop-color="#59605F"/>
<stop offset="1" stop-color="#303235"/>
</linearGradient>
<linearGradient id="paint2_linear_58_108" x1="64" y1="17" x2="64" y2="107" gradientUnits="userSpaceOnUse">
<stop stop-color="#A1B0B8"/>
<stop offset="1" stop-color="#718289"/>
</linearGradient>
<linearGradient id="paint3_linear_58_108" x1="64" y1="30" x2="64" y2="94" gradientUnits="userSpaceOnUse">
<stop stop-color="#21D0AF"/>
<stop offset="1" stop-color="#07A472"/>
</linearGradient>
</defs>
</svg>
