<svg width="128" height="128" viewBox="0 0 128 128" fill="none" xmlns="http://www.w3.org/2000/svg">
<g filter="url(#filter0_di_58_363)">
<path d="M64 15C22.9676 15 8.87558 47.3173 5.13909 58.917C4.27807 61.5899 4.29164 64.4111 5.18368 67.0739C9.01019 78.4962 23.2571 110 64 110C104.743 110 118.99 78.4962 122.816 67.0739C123.708 64.4111 123.722 61.5899 122.861 58.917C119.124 47.3173 105.032 15 64 15Z" fill="url(#paint0_linear_58_363)"/>
</g>
<g filter="url(#filter1_i_58_363)">
<circle cx="64" cy="63" r="36" fill="white"/>
</g>
<mask id="mask0_58_363" style="mask-type:alpha" maskUnits="userSpaceOnUse" x="28" y="27" width="72" height="72">
<circle cx="64" cy="63" r="36" fill="white"/>
</mask>
<g mask="url(#mask0_58_363)">
<g filter="url(#filter2_d_58_363)">
<path d="M49.6875 53.2057L4 99H106L60.3125 53.2057C57.3785 50.2648 52.6215 50.2648 49.6875 53.2057Z" fill="url(#paint1_linear_58_363)"/>
<path d="M79 43C79 47.4183 75.4183 51 71 51C66.5817 51 63 47.4183 63 43C63 38.5817 66.5817 35 71 35C75.4183 35 79 38.5817 79 43Z" fill="url(#paint2_linear_58_363)"/>
</g>
</g>
<defs>
<filter id="filter0_di_58_363" x="4.50381" y="15" width="118.992" height="99" filterUnits="userSpaceOnUse" color-interpolation-filters="sRGB">
<feFlood flood-opacity="0" result="BackgroundImageFix"/>
<feColorMatrix in="SourceAlpha" type="matrix" values="0 0 0 0 0 0 0 0 0 0 0 0 0 0 0 0 0 0 127 0" result="hardAlpha"/>
<feOffset dy="4"/>
<feComposite in2="hardAlpha" operator="out"/>
<feColorMatrix type="matrix" values="0 0 0 0 0 0 0 0 0 0 0 0 0 0 0 0 0 0 0.25 0"/>
<feBlend mode="normal" in2="BackgroundImageFix" result="effect1_dropShadow_58_363"/>
<feBlend mode="normal" in="SourceGraphic" in2="effect1_dropShadow_58_363" result="shape"/>
<feColorMatrix in="SourceAlpha" type="matrix" values="0 0 0 0 0 0 0 0 0 0 0 0 0 0 0 0 0 0 127 0" result="hardAlpha"/>
<feOffset dy="4"/>
<feComposite in2="hardAlpha" operator="arithmetic" k2="-1" k3="1"/>
<feColorMatrix type="matrix" values="0 0 0 0 1 0 0 0 0 1 0 0 0 0 1 0 0 0 0.25 0"/>
<feBlend mode="normal" in2="shape" result="effect2_innerShadow_58_363"/>
</filter>
<filter id="filter1_i_58_363" x="28" y="27" width="72" height="72" filterUnits="userSpaceOnUse" color-interpolation-filters="sRGB">
<feFlood flood-opacity="0" result="BackgroundImageFix"/>
<feBlend mode="normal" in="SourceGraphic" in2="BackgroundImageFix" result="shape"/>
<feColorMatrix in="SourceAlpha" type="matrix" values="0 0 0 0 0 0 0 0 0 0 0 0 0 0 0 0 0 0 127 0" result="hardAlpha"/>
<feOffset dy="4"/>
<feComposite in2="hardAlpha" operator="arithmetic" k2="-1" k3="1"/>
<feColorMatrix type="matrix" values="0 0 0 0 0 0 0 0 0 0 0 0 0 0 0 0 0 0 0.25 0"/>
<feBlend mode="normal" in2="shape" result="effect1_innerShadow_58_363"/>
</filter>
<filter id="filter2_d_58_363" x="4" y="35" width="102" height="66" filterUnits="userSpaceOnUse" color-interpolation-filters="sRGB">
<feFlood flood-opacity="0" result="BackgroundImageFix"/>
<feColorMatrix in="SourceAlpha" type="matrix" values="0 0 0 0 0 0 0 0 0 0 0 0 0 0 0 0 0 0 127 0" result="hardAlpha"/>
<feOffset dy="2"/>
<feComposite in2="hardAlpha" operator="out"/>
<feColorMatrix type="matrix" values="0 0 0 0 0 0 0 0 0 0 0 0 0 0 0 0 0 0 0.25 0"/>
<feBlend mode="normal" in2="BackgroundImageFix" result="effect1_dropShadow_58_363"/>
<feBlend mode="normal" in="SourceGraphic" in2="effect1_dropShadow_58_363" result="shape"/>
</filter>
<linearGradient id="paint0_linear_58_363" x1="64" y1="15" x2="64" y2="110" gradientUnits="userSpaceOnUse">
<stop stop-color="#FF56AF"/>
<stop offset="1" stop-color="#B51268"/>
</linearGradient>
<linearGradient id="paint1_linear_58_363" x1="55" y1="35" x2="55" y2="99" gradientUnits="userSpaceOnUse">
<stop stop-color="#FFC0E1"/>
<stop offset="1" stop-color="#FF86C6"/>
</linearGradient>
<linearGradient id="paint2_linear_58_363" x1="55" y1="35" x2="55" y2="99" gradientUnits="userSpaceOnUse">
<stop stop-color="#FFC0E1"/>
<stop offset="1" stop-color="#FF86C6"/>
</linearGradient>
</defs>
</svg>
