<svg width="128" height="128" viewBox="0 0 128 128" fill="none" xmlns="http://www.w3.org/2000/svg">
<g filter="url(#filter0_di_58_169)">
<circle cx="64" cy="62" r="60" fill="url(#paint0_linear_58_169)"/>
</g>
<g filter="url(#filter1_d_58_169)">
<path d="M75.9779 18.3246C63.8656 12.8076 49.5346 14.9705 42.1119 18.9306C34.6892 22.8907 29.9701 27.1957 22.6273 31.11C32.9298 27.3968 38.716 26.1233 49.0706 26.0871C53.2396 18.0289 57.4656 14.9645 75.9779 18.3246Z" fill="#E1E1E1"/>
<path d="M61.0447 36.6202C57.8287 27.2136 65.5691 22.6824 76.0437 20.3952C76.9642 20.1943 76.9056 18.4887 75.9779 18.3246C57.4656 14.9645 53.2396 18.0289 49.0706 26.0871C50.8334 27.049 54.5359 35.1573 54.6376 38.7675C56.6156 38.0654 58.7476 37.3508 61.0447 36.6202Z" fill="#B8B8B8"/>
<path d="M22.6273 31.11C21.431 31.9858 22.0613 34.1653 23.5434 34.2072C31.5783 34.4341 45.8373 35.5931 49.0706 40.8747C50.7747 40.1826 52.6265 39.4815 54.6376 38.7675C54.5359 35.1573 50.8334 27.049 49.0706 26.0871C38.716 26.1233 32.9298 27.3968 22.6273 31.11Z" fill="#C2C2C2"/>
<path d="M104.277 25.1739C85.6608 29.5622 71.6072 33.2607 61.0447 36.6202C58.7476 37.3508 56.6156 38.0654 54.6376 38.7675C52.6265 39.4815 50.7747 40.1826 49.0706 40.8747C34.2176 46.9069 30.589 52.2513 30.514 59.4204C30.8256 63.4073 31.8697 66.8793 33.5583 69.9227C29.2159 55.3876 35.6956 46.0993 104.277 25.1739Z" fill="#C8C8C8"/>
<path d="M50.4625 83.6213C63.3068 89.184 72.6444 98.9468 81.9269 109.238C83.3106 110.772 84.9505 109.743 84.1373 107.844C83.0699 105.35 82.1035 103.075 82.0088 102.671C77.8694 85.0026 76.2566 77.1774 70.4093 70.836C68.3672 68.6213 65.9554 67.0989 62.9882 66.2698C63.452 87.731 37.4727 80.425 36.0809 69.4661C34.6892 58.5072 39.4905 52.1145 65.3078 52.1145C77.773 52.1145 98.0438 34.4421 105.299 27.7239C106.299 26.7986 105.639 25.1739 104.277 25.1739C35.6956 46.0993 29.2159 55.3876 33.5583 69.9227C36.8981 75.9421 42.7594 80.2853 50.4625 83.6213Z" fill="url(#paint1_linear_58_169)"/>
<path d="M61.5292 55.035C59.9532 55.1543 59.1407 56.966 59.9573 58.3192C61.2495 60.4604 62.1039 62.6552 62.9882 66.2698C65.9554 67.0989 68.3672 68.6213 70.4093 70.836C80.7246 78.3114 88.3422 80.9102 100.31 82.1394C102.329 82.3468 103.23 79.7555 101.566 78.5934C92.0418 71.9419 85.1038 66.688 76.1679 59.4698C72.1609 56.233 67.0801 54.6147 61.9437 55.0036L61.5292 55.035Z" fill="#C7C7C7"/>
</g>
<path d="M75.9779 18.3246C63.8656 12.8076 49.5346 14.9705 42.1119 18.9306C34.6892 22.8907 29.9701 27.1957 22.6273 31.11C32.9298 27.3968 38.716 26.1233 49.0706 26.0871C53.2396 18.0289 57.4656 14.9645 75.9779 18.3246Z" fill="white" fill-opacity="0.3"/>
<path d="M61.0447 36.6202C57.8287 27.2136 65.5691 22.6824 76.0437 20.3952C76.9642 20.1943 76.9056 18.4887 75.9779 18.3246C57.4656 14.9645 53.2396 18.0289 49.0706 26.0871C50.8334 27.049 54.5359 35.1573 54.6376 38.7675C56.6156 38.0654 58.7476 37.3508 61.0447 36.6202Z" fill="white" fill-opacity="0.3"/>
<path d="M22.6273 31.11C21.431 31.9858 22.0613 34.1653 23.5434 34.2072C31.5783 34.4341 45.8373 35.5931 49.0706 40.8747C50.7747 40.1826 52.6265 39.4815 54.6376 38.7675C54.5359 35.1573 50.8334 27.049 49.0706 26.0871C38.716 26.1233 32.9298 27.3968 22.6273 31.11Z" fill="white" fill-opacity="0.3"/>
<path d="M104.277 25.1739C85.6608 29.5622 71.6072 33.2607 61.0447 36.6202C58.7476 37.3508 56.6156 38.0654 54.6376 38.7675C52.6265 39.4815 50.7747 40.1826 49.0706 40.8747C34.2176 46.9069 30.589 52.2513 30.514 59.4204C30.8256 63.4073 31.8697 66.8793 33.5583 69.9227C29.2159 55.3876 35.6956 46.0993 104.277 25.1739Z" fill="white" fill-opacity="0.3"/>
<path d="M50.4625 83.6213C63.3068 89.184 72.6444 98.9468 81.9269 109.238C83.3106 110.772 84.9505 109.743 84.1373 107.844C83.0699 105.35 82.1035 103.075 82.0088 102.671C77.8694 85.0026 76.2566 77.1774 70.4093 70.836C68.3672 68.6213 65.9554 67.0989 62.9882 66.2698C63.452 87.731 37.4727 80.425 36.0809 69.4661C34.6892 58.5072 39.4905 52.1145 65.3078 52.1145C77.773 52.1145 98.0438 34.4421 105.299 27.7239C106.299 26.7986 105.639 25.1739 104.277 25.1739C35.6956 46.0993 29.2159 55.3876 33.5583 69.9227C36.8981 75.9421 42.7594 80.2853 50.4625 83.6213Z" fill="white" fill-opacity="0.3"/>
<path d="M61.5292 55.035C59.9532 55.1543 59.1407 56.966 59.9573 58.3192C61.2495 60.4604 62.1039 62.6552 62.9882 66.2698C65.9554 67.0989 68.3672 68.6213 70.4093 70.836C80.7246 78.3114 88.3422 80.9102 100.31 82.1394C102.329 82.3468 103.23 79.7555 101.566 78.5934C92.0418 71.9419 85.1038 66.688 76.1679 59.4698C72.1609 56.233 67.0801 54.6147 61.9437 55.0036L61.5292 55.035Z" fill="white" fill-opacity="0.3"/>
<defs>
<filter id="filter0_di_58_169" x="4" y="2" width="120" height="124" filterUnits="userSpaceOnUse" color-interpolation-filters="sRGB">
<feFlood flood-opacity="0" result="BackgroundImageFix"/>
<feColorMatrix in="SourceAlpha" type="matrix" values="0 0 0 0 0 0 0 0 0 0 0 0 0 0 0 0 0 0 127 0" result="hardAlpha"/>
<feOffset dy="4"/>
<feComposite in2="hardAlpha" operator="out"/>
<feColorMatrix type="matrix" values="0 0 0 0 0 0 0 0 0 0 0 0 0 0 0 0 0 0 0.25 0"/>
<feBlend mode="normal" in2="BackgroundImageFix" result="effect1_dropShadow_58_169"/>
<feBlend mode="normal" in="SourceGraphic" in2="effect1_dropShadow_58_169" result="shape"/>
<feColorMatrix in="SourceAlpha" type="matrix" values="0 0 0 0 0 0 0 0 0 0 0 0 0 0 0 0 0 0 127 0" result="hardAlpha"/>
<feOffset dy="4"/>
<feComposite in2="hardAlpha" operator="arithmetic" k2="-1" k3="1"/>
<feColorMatrix type="matrix" values="0 0 0 0 1 0 0 0 0 1 0 0 0 0 1 0 0 0 0.25 0"/>
<feBlend mode="normal" in2="shape" result="effect2_innerShadow_58_169"/>
</filter>
<filter id="filter1_d_58_169" x="22" y="15" width="83.7811" height="98.9807" filterUnits="userSpaceOnUse" color-interpolation-filters="sRGB">
<feFlood flood-opacity="0" result="BackgroundImageFix"/>
<feColorMatrix in="SourceAlpha" type="matrix" values="0 0 0 0 0 0 0 0 0 0 0 0 0 0 0 0 0 0 127 0" result="hardAlpha"/>
<feOffset dy="4"/>
<feComposite in2="hardAlpha" operator="out"/>
<feColorMatrix type="matrix" values="0 0 0 0 0 0 0 0 0 0 0 0 0 0 0 0 0 0 0.25 0"/>
<feBlend mode="normal" in2="BackgroundImageFix" result="effect1_dropShadow_58_169"/>
<feBlend mode="normal" in="SourceGraphic" in2="effect1_dropShadow_58_169" result="shape"/>
</filter>
<linearGradient id="paint0_linear_58_169" x1="64" y1="2" x2="64" y2="122" gradientUnits="userSpaceOnUse">
<stop stop-color="#03C9FE"/>
<stop offset="1" stop-color="#0675EC"/>
</linearGradient>
<linearGradient id="paint1_linear_58_169" x1="121.5" y1="22.5" x2="63.8345" y2="109.944" gradientUnits="userSpaceOnUse">
<stop stop-color="#D2D2D2"/>
<stop offset="1" stop-color="#989898"/>
</linearGradient>
</defs>
</svg>
